{"asset":{"version":"2.0","generator":"Unity 2022.3.44f1 glTFast 6.14.0"},"nodes":[{"name":"Rose_basisMesh","mesh":0}],"buffers":[{"uri":"Rose_basisMesh.bin","byteLength":249408}],"bufferViews":[{"buffer":0,"byteLength":101952,"target":34963},{"buffer":0,"byteLength":147456,"byteOffset":101952,"byteStride":24,"target":34962}],"accessors":[{"bufferView":1,"componentType":5126,"count":6144,"type":"VEC3","max":[0.009626784,0.09897056,0.0263137072],"min":[-0.0267818645,-0.0005381927,-0.0103599755]},{"bufferView":1,"componentType":5126,"count":6144,"type":"VEC3","byteOffset":12},{"bufferView":0,"componentType":5125,"count":25488,"type":"SCALAR"}],"meshes":[{"name":"Rose_basisMesh","primitives":[{"attributes":{"POSITION":0,"NORMAL":1},"indices":2}]}],"scene":0,"scenes":[{"name":"Rose_basisMesh","nodes":[0]}]}